<?xml version="1.0" encoding="UTF-8"?>
<svg id="Layer_1" data-name="Layer 1" xmlns="http://www.w3.org/2000/svg" viewBox="0 0 500 500">
  <defs>
    <style>
      .cls-1 {
        fill: #231f20;
        stroke: #000;
      }

      .cls-1, .cls-2 {
        stroke-miterlimit: 10;
        stroke-width: 12px;
      }

      .cls-2 {
        stroke: #2284c6;
      }

      .cls-2, .cls-3 {
        fill: #2284c6;
      }
	@media (prefers-color-scheme: dark) {
		.cls-1 {
			fill: #2284C6;
			stroke: #000;
		  }

		  .cls-1, .cls-2 {
			stroke-miterlimit: 10;
			stroke-width: 12px;
		  }

		  .cls-2 {
			stroke: #2284C6;
		  }

		  .cls-2, .cls-3 {
			fill: #2284C6;
		  }
	}
    </style>
  </defs>
  <path d="m349.1,469.56c-2.57,19.21-20.21,32.7-39.41,30.13-19.2-2.57-32.67-20.23-30.11-39.44,2.57-19.21,20.21-32.7,39.41-30.13,19.2,2.57,32.68,20.23,30.11,39.44Z"/>
  <polygon class="cls-1" points="296.66 482.25 291.68 477.58 471.24 298.05 380.47 29.46 387.07 27.37 479.14 299.8 296.66 482.25"/>
  <path class="cls-2" d="m20.14,222.28c-3.46,0-6.77-2.01-8.29-5.42-2.08-4.65-.06-10.13,4.51-12.24L381.9,35.8c4.58-2.12,9.98-.06,12.05,4.59,2.08,4.65.06,10.13-4.51,12.24L23.9,221.45c-1.22.56-2.51.83-3.76.83Z"/>
  <path class="cls-2" d="m328.23,357.35c-4.5.47-298.72-134.84-302.9-135.84-4.72-2.13-6.96-8.02-5-13.16,1.95-5.13,7.38-7.58,12.11-5.43l286.51,129.28s-.1-169.34-.1-169.34c0-5.56,4.15-10.07,9.27-10.07,5.12,0,9.26,4.5,9.27,10.06l.11,184.43c.11,5.41-4.31,10.19-9.27,10.07Z"/>
  <path class="cls-3" d="m429.31,66.89c-4.34,32.43-33.48,55.28-65.09,51.05-31.61-4.23-53.73-33.96-49.39-66.38,4.34-32.43,33.48-55.28,65.09-51.05,31.61,4.23,53.72,33.96,49.39,66.38Z"/>
  <path class="cls-3" d="m375.93,331.05c-4.18,31.22-32.85,53.15-64.05,48.97-31.2-4.18-53.1-32.88-48.93-64.1,4.17-31.22,32.85-53.15,64.05-48.97,31.2,4.18,53.1,32.88,48.93,64.1Z"/>
  <path d="m499.69,300.39c-2.57,19.21-20.21,32.7-39.41,30.13-19.2-2.57-32.67-20.23-30.11-39.44,2.57-19.21,20.21-32.7,39.41-30.13,19.2,2.57,32.68,20.23,30.11,39.44Z"/>
  <path d="m69.83,211.22c-2.57,19.21-20.21,32.7-39.41,30.13-19.2-2.57-32.67-20.23-30.11-39.44,2.57-19.21,20.21-32.7,39.41-30.13,19.2,2.57,32.68,20.23,30.11,39.44Z"/>
  <path d="m363.73,175.2c-2.57,19.21-20.21,32.7-39.41,30.13-19.2-2.57-32.67-20.23-30.11-39.44,2.57-19.21,20.21-32.7,39.41-30.13,19.2,2.57,32.68,20.23,30.11,39.44Z"/>
</svg>