<?xml version="1.0" encoding="utf-8"?>
<!-- Generator: Adobe Illustrator 27.1.1, SVG Export Plug-In . SVG Version: 6.00 Build 0)  -->
<svg version="1.1" id="Layer_1" xmlns="http://www.w3.org/2000/svg" xmlns:xlink="http://www.w3.org/1999/xlink" x="0px" y="0px"
	 viewBox="0 0 500 500" style="enable-background:new 0 0 500 500;" xml:space="preserve">
<style type="text/css">
	.st0{fill:#FFFFFF;}
</style>
<path class="st0" d="M349.1,469.6c-2.6,19.2-20.2,32.7-39.4,30.1s-32.7-20.2-30.1-39.4c2.6-19.2,20.2-32.7,39.4-30.1
	S351.7,450.4,349.1,469.6L349.1,469.6z"/>
<polygon class="st0" points="296.7,482.2 291.7,477.6 471.2,298 380.5,29.5 387.1,27.4 479.1,299.8 "/>
<path class="st0" d="M20.1,222.3c-3.5,0-6.8-2-8.3-5.4c-2.1-4.6-0.1-10.1,4.5-12.2L381.9,35.8c4.6-2.1,10-0.1,12,4.6
	c2.1,4.7,0.1,10.1-4.5,12.2L23.9,221.4C22.7,222,21.4,222.3,20.1,222.3z"/>
<path class="st0" d="M328.2,357.4c-4.5,0.5-298.7-134.8-302.9-135.8c-4.7-2.1-7-8-5-13.2c2-5.1,7.4-7.6,12.1-5.4L319,332.2
	l-0.1-169.3c0-5.6,4.1-10.1,9.3-10.1s9.3,4.5,9.3,10.1l0.1,184.4C337.6,352.7,333.2,357.5,328.2,357.4L328.2,357.4z"/>
<path class="st0" d="M429.3,66.9c-4.3,32.4-33.5,55.3-65.1,51.1c-31.6-4.2-53.7-34-49.4-66.4c4.3-32.4,33.5-55.3,65.1-51
	S433.6,34.5,429.3,66.9z"/>
<path class="st0" d="M375.9,331c-4.2,31.2-32.9,53.1-64,49s-53.1-32.9-48.9-64.1s32.9-53.1,64-49S380.1,299.8,375.9,331z"/>
<path class="st0" d="M499.7,300.4c-2.6,19.2-20.2,32.7-39.4,30.1s-32.7-20.2-30.1-39.4c2.6-19.2,20.2-32.7,39.4-30.1
	S502.3,281.2,499.7,300.4z"/>
<path class="st0" d="M69.8,211.2c-2.6,19.2-20.2,32.7-39.4,30.1c-19.2-2.6-32.7-20.2-30.1-39.4c2.6-19.2,20.2-32.7,39.4-30.1
	C58.9,174.4,72.4,192,69.8,211.2z"/>
<path class="st0" d="M363.7,175.2c-2.6,19.2-20.2,32.7-39.4,30.1c-19.2-2.6-32.7-20.2-30.1-39.4c2.6-19.2,20.2-32.7,39.4-30.1
	C352.8,138.3,366.3,156,363.7,175.2L363.7,175.2z"/>
</svg>
