<svg width="623" height="724" viewBox="0 0 623 724" fill="none" xmlns="http://www.w3.org/2000/svg">
<path d="M311.501 343.724C216.584 343.724 139.639 266.779 139.639 171.862C139.639 76.9453 216.584 0 311.501 0C406.418 0 483.363 76.9453 483.363 171.862C483.363 266.779 406.418 343.724 311.501 343.724Z" fill="white"/>
<path d="M529.731 446.069C473.416 412.996 230.829 390.711 101.255 446.069C21.7672 480.028 -6.86704 601.962 1.35757 649.782C9.58219 697.603 23.4554 723.897 311.279 723.897C599.103 723.897 608.64 704.745 620.792 649.782C632.945 594.821 593.873 483.739 529.731 446.069Z" fill="white"/>
</svg>
