<?xml version="1.0" encoding="UTF-8"?>
<svg id="Layer_2" data-name="Layer 2" xmlns="http://www.w3.org/2000/svg" viewBox="0 0 285.87 104">
  <defs>
    <style>
      .cls-1 {
        fill: #fff;
      }
    </style>
  </defs>
  <g id="Layer_1-2" data-name="Layer 1">
    <g>
      <g>
        <path class="cls-1" d="m234.78,31.07c-.48,0-.86.09-1.17.28-.31.19-.57.52-.79,1.01l-7.41,17.45-7.27-17.45c-.35-.85-1.04-1.29-1.99-1.29-1.07,0-1.56.53-1.78.98-.3.6-.27,1.33.08,2.19l9.05,20.69c.5,1.11,1.34,1.34,1.95,1.34.47,0,.88-.12,1.2-.37.31-.23.57-.56.75-.98l9.13-20.95c.32-.69.32-1.36,0-1.95-.23-.43-.73-.95-1.76-.95Z"/>
        <path class="cls-1" d="m265.17,31.67c-.42.41-.63.93-.63,1.55v20.9c0,.6.21,1.12.62,1.53.41.41.93.62,1.53.62s1.15-.21,1.55-.63c.4-.41.6-.92.6-1.52v-20.9c0-.62-.2-1.14-.61-1.54-.79-.79-2.22-.82-3.07,0Z"/>
        <path class="cls-1" d="m259.77,38.61c-.6-1.52-1.47-2.87-2.59-4-1.12-1.13-2.45-2.01-3.97-2.62-1.51-.61-3.2-.92-5.04-.92h-5.59c-.6,0-1.11.2-1.52.6-.42.41-.63.93-.63,1.55v20.9c0,.6.21,1.12.62,1.53.41.41.93.62,1.53.62h5.59c1.83,0,3.53-.31,5.04-.92,1.51-.61,2.85-1.49,3.97-2.62,1.12-1.13,1.99-2.48,2.59-4.01.6-1.53.9-3.23.9-5.06s-.3-3.53-.9-5.05Zm-3.27,5.05c0,1.69-.36,3.2-1.08,4.51-.71,1.3-1.7,2.33-2.93,3.07-1.24.74-2.68,1.11-4.31,1.11h-3.44v-17.34h3.44c1.62,0,3.07.37,4.31,1.1,1.24.73,2.22,1.75,2.93,3.04.71,1.29,1.07,2.81,1.07,4.52Z"/>
      </g>
      <g>
        <path class="cls-1" d="m18.55,92.15c1.45.21,2.9.32,4.32.32,9.56,0,17.12-4.94,19.26-12.57,2.35-8.38-1.13-15.98-9.29-20.33-3.56-1.9-6.85-3.44-10.34-5.09-1.04-.49-2.09-.99-3.18-1.5-4.75-2.27-9.56-6.47-8.82-11.47.81-5.49,6.09-8.67,12.82-7.73,6.36.88,9.38,3.64,11.8,5.86l.11.1.05.04c.7.59,1.57.89,2.49.84.96-.05,1.85-.47,2.5-1.18.65-.71.99-1.64.94-2.62-.05-.97-.47-1.87-1.18-2.52-2.83-2.59-7.11-6.5-15.7-7.69-10.75-1.49-19.58,4.33-20.99,13.85-1.11,7.45,3.83,14.76,12.87,19.08,1.02.49,2.01.95,2.99,1.42l.25.12c3.39,1.6,6.6,3.11,9.99,4.92,6.52,3.47,6.71,8.43,5.72,11.97-1.5,5.37-7.75,8.19-15.53,7.03-5.66-.84-10.58-3.83-12.83-7.81-.48-.84-1.25-1.45-2.19-1.71-.93-.26-1.91-.14-2.75.34-.84.48-1.45,1.25-1.71,2.19-.26.93-.14,1.91.34,2.75,3.38,5.97,10.14,10.24,18.08,11.41Z"/>
        <path class="cls-1" d="m52.02,104c1.86,0,3.31-1.39,3.31-3.17v-12.77c2.68,2.57,7.08,4.19,11.5,4.19,10.42,0,17.98-7.56,17.98-17.98s-7.73-18.12-17.98-18.12c-4.54,0-8.44,1.4-11.92,4.29-.4-1.22-1.53-2.06-2.89-2.06-1.75,0-3.17,1.42-3.17,3.17l-.14,39.27c0,1.78,1.45,3.17,3.31,3.17Zm3.31-29.73c0-6.94,4.73-11.78,11.5-11.78s11.5,4.95,11.5,11.78-4.94,11.64-11.5,11.64-11.5-4.79-11.5-11.64Z"/>
        <path class="cls-1" d="m148.17,92.37c6.28,0,12.12-2.84,15.61-7.59.53-.68.76-1.56.62-2.42-.13-.82-.59-1.54-1.24-1.97-.68-.53-1.5-.75-2.32-.63-.8.12-1.54.56-2.07,1.24-2.46,3.15-6.53,5.1-10.61,5.1-7.02,0-12.74-5.34-12.74-11.91s5.6-11.77,12.74-11.77c4.11,0,8.44,2.4,10.31,5.7.37.66,1,1.12,1.76,1.3.88.21,1.86.03,2.66-.5,1.39-1.08,1.72-2.97.78-4.49-3.04-4.88-9.41-8.34-15.5-8.41-5.23-.05-10.11,1.9-13.77,5.52-3.46,3.43-5.37,7.92-5.37,12.65,0,10.02,8.59,18.17,19.14,18.17Z"/>
        <path class="cls-1" d="m187.35,92.37c6.27,0,12.1-2.84,15.59-7.58.53-.68.76-1.56.62-2.41-.13-.81-.59-1.54-1.23-1.96-.68-.52-1.5-.75-2.31-.63-.8.12-1.53.56-2.06,1.24-2.5,3.19-6.46,5.09-10.59,5.09-6.21,0-11.51-4.33-12.52-10.15,4.26,0,8.53.04,12.79.07,4.41.03,8.82.07,13.23.07,1.69,0,3.13-1.49,3.13-3.26v-.14c0-.36-.04-3.58-1.52-6.85-.04-.26-.26-.66-.66-1.37-.09-.15-.16-.27-.21-.37-3.16-5.18-8.22-8.03-14.23-8.03-10.89,0-19.11,7.8-19.11,18.14s8.04,18.14,19.11,18.14Zm-11.76-22.65c1.6-4.62,5.97-7.51,11.05-7.25,3.81.2,8.68,1.62,10.54,7.25h-21.59Z"/>
        <path class="cls-1" d="m124.92,86.97v-.1s0-8.24,0-8.24c0-.16-.02-.31-.05-.47l-.09-16.94c0-1.75-1.42-3.17-3.17-3.17-1.33,0-2.47.89-2.89,2.16-3.05-2.79-7.16-4.26-11.94-4.26-6.79,0-12.37,3.15-15.72,8.86-2.98,5.25-2.98,13.17,0,18.42,3.08,5.47,9.11,8.87,15.72,8.87,3.71,0,8.73-1.48,11.63-4.3,0,.02.01.03.02.05v.96c0,1.79,1.46,3.25,3.25,3.25s3.25-1.46,3.25-3.25v-1.83s0,0,0,0Zm-18.14-1.21c-6.57,0-11.52-5.01-11.52-11.66s4.95-11.94,11.52-11.94,11.52,5.13,11.52,11.94-4.84,11.66-11.52,11.66Z"/>
      </g>
      <g>
        <path class="cls-1" d="m224.43,79.89c-.54,0-1.06-.29-1.32-.79L186.47,10.26c-.27-.5-.23-1.12.11-1.58.33-.46.9-.69,1.47-.6l50.53,8.53c.82.14,1.37.91,1.23,1.73-.14.82-.91,1.36-1.73,1.23l-47.52-8.02,34.58,64.98,30.97-11.84c.77-.3,1.64.09,1.94.87s-.09,1.64-.87,1.94l-32.21,12.32c-.18.07-.36.1-.54.1Z"/>
        <path class="cls-1" d="m261.51,66.95c-.37,2.75-2.9,4.68-5.65,4.31-2.75-.37-4.68-2.9-4.31-5.65.37-2.75,2.9-4.68,5.65-4.31,2.75.37,4.68,2.9,4.31,5.65Z"/>
        <path class="cls-1" d="m192.44,9.68c-.37,2.75-2.9,4.68-5.65,4.31-2.75-.37-4.68-2.9-4.31-5.65.37-2.75,2.9-4.68,5.65-4.31,2.75.37,4.68,2.9,4.31,5.65Z"/>
        <path class="cls-1" d="m261.13,3.63c-.23,1.75-1.85,2.98-3.6,2.75-1.75-.23-2.98-1.85-2.75-3.6.23-1.75,1.85-2.98,3.6-2.75,1.75.23,2.98,1.85,2.75,3.6Z"/>
        <path class="cls-1" d="m285.84,42.38c-.23,1.75-1.85,2.98-3.6,2.75-1.75-.23-2.98-1.85-2.75-3.6.23-1.75,1.85-2.98,3.6-2.75,1.75.23,2.98,1.85,2.75,3.6Z"/>
        <path class="cls-1" d="m243.6,18.62c-.23,1.75-1.85,2.98-3.6,2.75-1.75-.23-2.98-1.85-2.75-3.6s1.85-2.98,3.6-2.75c1.75.23,2.98,1.85,2.75,3.6Z"/>
        <path class="cls-1" d="m227.93,78.49c-.23,1.75-1.85,2.98-3.6,2.75-1.75-.23-2.98-1.85-2.75-3.6.23-1.75,1.85-2.98,3.6-2.75,1.75.23,2.98,1.85,2.75,3.6Z"/>
        <polygon class="cls-1" points="282.11 41.72 257.79 3.68 241.81 17.82 241.15 17.07 258.01 2.16 282.95 41.18 282.11 41.72"/>
      </g>
    </g>
  </g>
</svg>