<svg version="1.2" xmlns="http://www.w3.org/2000/svg" viewBox="0 0 246 103" width="246" height="103"><style>.a{fill:#fff}</style><path class="a" d="m18.6 90.4q2.1 0.3 4.3 0.3c9.5 0 17.1-4.9 19.2-12.5 2.4-8.4-1.1-16-9.3-20.3-3.5-1.9-6.8-3.5-10.3-5.1q-1.6-0.8-3.2-1.5c-4.7-2.3-9.5-6.5-8.8-11.5 0.8-5.5 6.1-8.7 12.8-7.7 6.4 0.8 9.4 3.6 11.8 5.8l0.1 0.1 0.1 0.1c0.7 0.6 1.6 0.8 2.5 0.8 0.9 0 1.8-0.5 2.5-1.2 0.6-0.7 1-1.6 0.9-2.6 0-1-0.5-1.9-1.2-2.5-2.8-2.6-7.1-6.5-15.7-7.7-10.7-1.5-19.5 4.3-21 13.8-1.1 7.5 3.9 14.8 12.9 19.1q1.5 0.7 3 1.4l0.3 0.2c3.3 1.6 6.6 3.1 9.9 4.9 6.6 3.4 6.8 8.4 5.8 11.9-1.5 5.4-7.8 8.2-15.6 7.1-5.6-0.9-10.5-3.9-12.8-7.8-0.5-0.9-1.2-1.5-2.2-1.7-0.9-0.3-1.9-0.2-2.7 0.3-0.9 0.5-1.5 1.3-1.7 2.2-0.3 0.9-0.2 1.9 0.3 2.7 3.4 6 10.1 10.3 18.1 11.4z"/><path fill-rule="evenodd" class="a" d="m52 102.3c-1.8 0-3.3-1.4-3.3-3.2l0.2-39.3c0-1.7 1.4-3.1 3.1-3.1 1.4 0 2.5 0.8 2.9 2 3.5-2.9 7.4-4.3 11.9-4.3 10.3 0 18 7.7 18 18.2 0 10.4-7.5 17.9-18 17.9-4.4 0-8.8-1.6-11.5-4.1v12.7c0 1.8-1.4 3.2-3.3 3.2zm14.8-18.1c6.6 0 11.5-4.8 11.5-11.6 0-6.9-4.7-11.8-11.5-11.8-6.7 0-11.5 4.8-11.5 11.8 0 6.8 5 11.6 11.5 11.6z"/><path class="a" d="m148.2 90.7c6.3 0 12.1-2.9 15.6-7.6 0.5-0.7 0.7-1.6 0.6-2.5-0.1-0.8-0.6-1.5-1.2-1.9-0.7-0.6-1.5-0.8-2.4-0.7-0.8 0.2-1.5 0.6-2 1.3-2.5 3.1-6.6 5.1-10.6 5.1-7.1 0-12.8-5.4-12.8-11.9 0-6.6 5.6-11.8 12.8-11.8 4.1 0 8.4 2.4 10.3 5.7 0.3 0.7 1 1.1 1.7 1.3 0.9 0.2 1.9 0 2.7-0.5 1.4-1.1 1.7-3 0.8-4.5-3.1-4.9-9.4-8.3-15.5-8.4-5.3-0.1-10.1 1.9-13.8 5.5-3.5 3.4-5.4 7.9-5.4 12.7 0 10 8.6 18.1 19.2 18.1z"/><path fill-rule="evenodd" class="a" d="m187.4 90.7c-11.1 0-19.1-7.8-19.1-18.2 0-10.3 8.2-18.1 19.1-18.1 6 0 11 2.8 14.2 8q0.1 0.2 0.2 0.4c0.4 0.7 0.6 1.1 0.7 1.3 1.5 3.3 1.5 6.5 1.5 6.9v0.1c0 1.8-1.4 3.3-3.1 3.3q-6.6 0-13.3-0.1-6.4 0-12.8 0c1.1 5.8 6.4 10.1 12.6 10.1 4.1 0 8.1-1.9 10.6-5.1 0.5-0.7 1.2-1.1 2-1.2 0.8-0.1 1.7 0.1 2.3 0.6 0.7 0.4 1.1 1.2 1.3 2 0.1 0.8-0.1 1.7-0.7 2.4-3.5 4.7-9.3 7.6-15.6 7.6zm9.9-22.7c-1.9-5.6-6.8-7.1-10.6-7.3-5.1-0.2-9.4 2.7-11 7.3z"/><path fill-rule="evenodd" class="a" d="m124.9 85.3v1.8c0 1.8-1.4 3.2-3.2 3.2-1.8 0-3.3-1.4-3.3-3.2v-1q0 0 0 0c-2.9 2.8-7.9 4.3-11.6 4.3-6.6 0-12.7-3.4-15.7-8.9-3-5.2-3-13.1 0-18.4 3.3-5.7 8.9-8.9 15.7-8.9 4.8 0 8.9 1.5 11.9 4.3 0.4-1.3 1.6-2.2 2.9-2.2 1.8 0 3.2 1.5 3.2 3.2l0.1 17q0 0.2 0 0.4v8.4q0 0 0 0zm-6.6-12.9c0-6.8-5-11.9-11.5-11.9-6.6 0-11.5 5.2-11.5 11.9 0 6.6 4.9 11.7 11.5 11.7 6.7 0 11.5-4.9 11.5-11.7z"/><path class="a" d="m221.9 72.1c-0.2 1.8-1.8 3-3.6 2.8-1.7-0.2-2.9-1.9-2.7-3.6 0.2-1.8 1.8-3 3.6-2.8 1.7 0.3 3 1.9 2.7 3.6z"/><path class="a" d="m245.8 45.3c-0.3 1.8-1.9 3-3.6 2.8-1.8-0.3-3-1.9-2.8-3.6 0.2-1.8 1.9-3 3.6-2.8 1.8 0.2 3 1.9 2.8 3.6z"/><path class="a" d="m218.2 72.2l-0.8-0.7 25.9-26.7-13.1-40.1 1-0.3 13.3 40.6-26.3 27.2z"/><path class="a" d="m170.4 33.5c-0.5 0-1.1-0.4-1.3-0.9-0.4-0.8 0-1.7 0.7-2l60.3-27.4c0.7-0.3 1.6 0 2 0.8 0.3 0.7 0 1.6-0.8 2l-60.2 27.3q-0.3 0.2-0.6 0.2z"/><path class="a" d="m218.9 53.6q-0.3 0-0.6-0.1l-48.4-20.1c-0.8-0.4-1.2-1.2-0.8-2 0.3-0.8 1.1-1.1 1.9-0.8l46.4 19.3v-25.3c0-0.8 0.6-1.5 1.5-1.5 0.8 0 1.5 0.7 1.5 1.5v27.5c0 0.5-0.3 1-0.7 1.3q-0.4 0.2-0.8 0.2z"/><path class="a" d="m234.8 5.7c-0.4 2.7-3 4.7-5.7 4.3-2.8-0.4-4.7-2.9-4.3-5.7 0.4-2.7 2.9-4.6 5.6-4.3 2.8 0.4 4.7 2.9 4.3 5.7z"/><path class="a" d="m223.4 50.3c-0.3 2.7-2.9 4.7-5.6 4.3-2.8-0.4-4.7-2.9-4.3-5.7 0.3-2.7 2.9-4.6 5.6-4.3 2.8 0.4 4.7 2.9 4.3 5.7z"/><path class="a" d="m222.2 24.8c-0.2 1.8-1.8 3-3.6 2.8-1.7-0.3-3-1.9-2.7-3.6 0.2-1.8 1.8-3 3.6-2.8 1.7 0.2 3 1.9 2.7 3.6z"/><path class="a" d="m175 32.5c-0.2 1.8-1.8 3-3.6 2.8-1.7-0.3-3-1.9-2.7-3.6 0.2-1.8 1.8-3 3.6-2.8 1.7 0.2 2.9 1.9 2.7 3.6z"/><path class="a" d="m242.7 46.1l-23.9-21.6-48.2 8.3-0.2-1 48.7-8.4 24.3 22-0.7 0.7z"/></svg>