<?xml version="1.0" encoding="UTF-8"?>
<svg id="Layer_1" data-name="Layer 1" xmlns="http://www.w3.org/2000/svg" viewBox="0 0 500 500">
  <defs>
    <style>
      .cls-1 {
        fill: #0d0e0e;
        stroke: #231f20;
      }

      .cls-1, .cls-2 {
        stroke-miterlimit: 10;
        stroke-width: 10px;
      }

      .cls-3, .cls-2 {
        fill: #2284c6;
      }

      .cls-2 {
        stroke: #2284c6;
      }

      .cls-4 {
        fill: #231f20;
      }
    </style>
  </defs>
  <path class="cls-2" d="m202.16,479c-3.33,0-6.4-2.23-7.37-5.65-1.18-4.15,1.16-8.49,5.24-9.68l163.84-48.32,103.49-136.85L276.56,60.02c-2.81-3.23-2.53-8.17.63-11.04,3.17-2.87,8.02-2.58,10.84.65l195.03,223.32c2.45,2.81,2.59,7,.34,9.97l-108.91,144.01c-1,1.32-2.38,2.28-3.95,2.74l-166.25,49.03c-.71.21-1.43.31-2.14.31Z"/>
  <g>
    <path class="cls-2" d="m212.28,217c-2.53,0-4.69.53-6.43,1.6-1.81,1.12-3.23,2.95-4.33,5.55l-38.82,90.09-38.73-90.48c-1.98-4.36-5.73-6.76-10.56-6.76-5.91,0-8.55,3.2-9.61,5.11-1.71,3.09-1.67,6.87.16,11.33l48.34,109.71c2.11,4.42,5.79,6.85,10.37,6.85,2.37,0,4.46-.57,6.25-1.71,1.81-1.16,3.23-2.96,4.18-5.25l48.63-110.43c1.95-4.57,1.12-8.08.08-10.22-.98-2.01-3.51-5.39-9.54-5.39Z"/>
    <path class="cls-2" d="m372.72,220.2c-2.14-2.1-4.9-3.2-7.98-3.2-4.33,0-7.9,2.05-10.17,5.98l-46.13,91.73-47.25-91.94c-2.15-3.71-5.72-5.76-10.06-5.76-3.05,0-5.81,1.09-8,3.15-2.23,2.11-3.41,4.87-3.41,8v110.72c0,3,1.16,5.72,3.35,7.85,4.37,4.29,11.71,4.32,16.13.01,2.2-2.14,3.36-4.86,3.36-7.86v-67.32l34.9,68.35c2.11,4.15,5.84,6.44,10.49,6.44,4.2,0,7.59-1.83,10.01-5.65l35.21-70.07v68.26c0,3.02,1.17,5.74,3.35,7.84,2.19,2.16,5.04,3.3,8.23,3.3s5.89-1.16,8.03-3.34c2.11-2.14,3.23-4.83,3.23-7.8v-110.72c0-3.09-1.13-5.84-3.28-7.94Z"/>
  </g>
  <polygon class="cls-1" points="185.92 484.77 14.79 223.82 188.85 121 191 126.22 22.31 225.87 189.74 481.17 185.92 484.77"/>
  <path class="cls-3" d="m309.48,39.92c-2.58,19.31-20.33,32.87-39.64,30.29-19.31-2.58-32.87-20.33-30.29-39.64,2.58-19.31,20.33-32.87,39.64-30.29,19.31,2.58,32.87,20.33,30.29,39.64Z"/>
  <path class="cls-4" d="m57.2,229.62c-2.09,15.63-16.46,26.61-32.1,24.52-15.63-2.09-26.61-16.46-24.52-32.1,2.09-15.63,16.46-26.61,32.1-24.52,15.63,2.09,26.61,16.46,24.52,32.1Z"/>
  <path class="cls-3" d="m406.31,421.85c-2.58,19.31-20.33,32.87-39.64,30.29-19.31-2.58-32.87-20.33-30.29-39.64,2.58-19.31,20.33-32.87,39.64-30.29,19.31,2.58,32.87,20.33,30.29,39.64Z"/>
  <path class="cls-4" d="m212.66,474.96c-2.09,15.63-16.46,26.61-32.1,24.52-15.63-2.09-26.61-16.46-24.52-32.1,2.09-15.63,16.46-26.61,32.1-24.52,15.63,2.09,26.61,16.46,24.52,32.1Z"/>
  <path class="cls-4" d="m499.66,281.96c-2.09,15.63-16.46,26.61-32.1,24.52-15.63-2.09-26.61-16.46-24.52-32.1,2.09-15.63,16.46-26.61,32.1-24.52,15.63,2.09,26.61,16.46,24.52,32.1Z"/>
  <path class="cls-4" d="m217.66,124.96c-2.09,15.63-16.46,26.61-32.1,24.52-15.63-2.09-26.61-16.46-24.52-32.1,2.09-15.63,16.46-26.61,32.1-24.52,15.63,2.09,26.61,16.46,24.52,32.1Z"/>
</svg>