<svg width="455" height="645" viewBox="0 0 455 645" fill="none" xmlns="http://www.w3.org/2000/svg">
<path d="M131 620.571V588H324V620.571C324 636.857 300.244 645 288.909 645H166.091C153.885 645 131 636.857 131 620.571Z" fill="white"/>
<mask id="path-2-inside-1_41_36" fill="white">
<path d="M227.5 0C353.145 0 455 105.773 455 236.25C455 319.89 413.145 393.378 350 435.36V522.083C350 538.416 336.389 542.5 325.5 542.5H129.5C109.9 542.5 105 528.889 105 522.083V435.36C41.8547 393.378 0 319.89 0 236.25C0 105.773 101.855 0 227.5 0Z"/>
</mask>
<path d="M350 435.36L317.334 386.228L291 403.737V435.36H350ZM105 435.36H164V403.737L137.666 386.228L105 435.36ZM227.5 0V59C318.481 59 396 136.239 396 236.25H455H514C514 75.3064 387.808 -59 227.5 -59V0ZM455 236.25H396C396 299.948 364.188 355.077 317.334 386.228L350 435.36L382.666 484.492C462.103 431.679 514 339.832 514 236.25H455ZM350 435.36H291V522.083H350H409V435.36H350ZM350 522.083H291C291 517.784 291.959 511.226 295.782 504.143C299.621 497.029 304.945 491.991 309.928 488.787C318.513 483.268 325.266 483.5 325.5 483.5V542.5V601.5C336.623 601.5 355.626 599.69 373.739 588.046C395.753 573.893 409 549.889 409 522.083H350ZM325.5 542.5V483.5H129.5V542.5V601.5H325.5V542.5ZM129.5 542.5V483.5C134.794 483.5 145.739 486.079 154.545 496.271C161.506 504.328 164 513.579 164 522.083H105H46C46 537.393 50.9443 556.852 65.2551 573.416C81.411 592.115 104.606 601.5 129.5 601.5V542.5ZM105 522.083H164V435.36H105H46V522.083H105ZM105 435.36L137.666 386.228C90.8119 355.077 59 299.948 59 236.25H0H-59C-59 339.832 -7.10255 431.679 72.3344 484.492L105 435.36ZM0 236.25H59C59 136.239 136.519 59 227.5 59V0V-59C67.1915 -59 -59 75.3064 -59 236.25H0Z" fill="white" mask="url(#path-2-inside-1_41_36)"/>
</svg>
